<?xml version="1.0" standalone="no"?><!DOCTYPE svg PUBLIC "-//W3C//DTD SVG 1.1//EN" "http://www.w3.org/Graphics/SVG/1.1/DTD/svg11.dtd"><svg t="1651482361769" class="icon" viewBox="0 0 1024 1024" version="1.1" xmlns="http://www.w3.org/2000/svg" p-id="1544" width="64" height="64" xmlns:xlink="http://www.w3.org/1999/xlink"><defs><style type="text/css">@font-face { font-family: feedback-iconfont; src: url("//at.alicdn.com/t/font_1031158_u69w8yhxdu.woff2?t=1630033759944") format("woff2"), url("//at.alicdn.com/t/font_1031158_u69w8yhxdu.woff?t=1630033759944") format("woff"), url("//at.alicdn.com/t/font_1031158_u69w8yhxdu.ttf?t=1630033759944") format("truetype"); }
</style></defs><path d="M512 129.94444444h-0.36736111H511.08159723c-210.68159723 0.55104167-381.13715277 171.37395833-381.13715279 382.05555556s170.45555556 381.50451389 381.13715279 382.05555556h0.91840277c211.04895833 0 382.05555556-171.00659723 382.05555556-382.05555556S723.04895833 129.94444444 512 129.94444444z m0 733.62013889h-0.36736111H511.08159723C317.48229167 863.01354167 160.43541667 705.78298611 160.43541667 512S317.29861111 160.98645833 511.08159723 160.61909723h0.91840277c194.15034723 0 351.56458333 157.41423611 351.56458333 351.56458333 0 193.96666667-157.41423611 351.38090277-351.56458333 351.38090277z" p-id="1545" fill="#ffd04b"></path><path d="M633.78020833 357.34097223c-34.34826389 8.265625-69.79861111 13.225-106.35104166 14.32708333v125.08645833H651.59722223c-1.10208333-51.61423611-7.53090277-98.45277777-17.8170139-139.41354166zM527.24548611 193.31423611v150.434375c33.98090277-1.10208333 67.04340277-5.51041667 98.82013889-13.225-24.06215277-76.04375-61.53298611-126.00486111-98.82013889-137.209375zM397.01597223 330.33993056c32.14409723 7.71458333 65.39027777 12.30659723 99.5548611 13.40868055V192.946875c-37.28715277 10.83715277-75.30902777 60.79826389-99.5548611 137.39305556zM740.86597223 286.80763889c-41.51180556-42.24652777-94.59548611-73.10486111-154.10798612-87.24826389 27.18472223 28.103125 49.96111111 71.084375 66.30868056 123.61701389 30.67465277-9.36770833 60.06354167-21.490625 87.79930556-36.36875zM679.70034723 496.75451389h153.00590277c-3.30625-71.26805556-29.93993056-136.65833333-72.55381944-188.45625C728.74305556 325.56423611 695.496875 339.70763889 660.78125 350.17743056c11.20451389 44.08333333 17.81701389 93.86076389 18.91909723 146.57708333zM371.484375 496.75451389h125.27013889V371.66805556c-36.91979167-1.10208333-72.7375-6.06145833-107.26944445-14.51076389-10.46979167 40.96076389-16.89861111 87.98298611-18.00069444 139.59722222zM651.59722223 527.24548611H527.24548611v124.90277778c36.55243056 1.10208333 72.18645833 5.87777777 106.53472222 14.32708334 10.28611111-40.77708333 16.71493056-87.79930556 17.8170139-139.22986112zM389.48506944 666.65902777c34.53194444-8.44930556 70.34965277-13.40868056 107.26944445-14.51076388v-124.90277778H371.484375c1.10208333 51.61423611 7.53090277 98.63645833 18.00069444 139.41354166zM496.75451389 830.86944444V680.06770833c-34.16458333 1.10208333-67.59444444 5.69409723-99.73854166 13.40868056 24.24583333 76.59479167 62.26770833 126.73958333 99.73854166 137.39305555zM586.75798611 824.440625c59.5125-14.32708333 112.59618056-45.00173611 154.29166666-87.43194444-27.73576389-14.878125-57.12465277-27.00104167-87.79930554-36.36875-16.34756944 52.71631944-39.30763889 95.51388889-66.49236112 123.80069444zM436.13993056 199.92673611c-58.96145833 14.32708333-111.67777777 45.00173611-153.00590279 87.06458333 27.55208333 14.69444444 56.57361111 26.81736111 86.88090279 36.00138889 16.34756944-52.34895833 39.12395833-94.96284723 66.125-123.06597222zM660.78125 673.82256944c34.89930556 10.46979167 68.14548611 24.61319444 99.55486111 41.87916667 42.61388889-51.79791667 69.24756944-117.18819444 72.55381945-188.45625H679.88402777C678.59826389 579.96180556 671.98576389 629.55555556 660.78125 673.82256944zM527.24548611 680.06770833v150.61805556c37.28715277-11.20451389 74.75798611-61.165625 98.82013889-137.39305556-31.77673611-7.71458333-64.83923611-12.12291667-98.82013889-13.225zM362.48402777 349.99375c-34.53194444-10.46979167-67.59444444-24.42951389-98.63645833-41.69548611-42.61388889 51.79791667-69.24756944 117.18819444-72.55381944 188.45625h152.27118056c0.91840277-52.9 7.71458333-102.67743056 18.91909721-146.76076389zM343.38125 527.24548611H191.11006944c3.30625 71.26805556 29.93993056 136.65833333 72.55381945 188.45625 31.04201389-17.08229167 64.10451389-31.22569444 98.63645834-41.69548611-11.02083333-44.08333333-17.81701389-93.86076389-18.91909723-146.76076389zM282.95034723 737.00868056c41.328125 42.06284723 94.04444444 72.7375 153.18958333 87.06458333-27.00104167-28.103125-49.77743056-70.90069444-66.125-123.24965278-30.30729167 9.36770833-59.5125 21.490625-87.06458333 36.18506945z" p-id="1546" fill="#ffd04b"></path></svg>